<?xml version="1.0" encoding="UTF-8"?>
<svg id="Capa_2" data-name="Capa 2" xmlns="http://www.w3.org/2000/svg" viewBox="0 0 297.94 327.59">
  <defs>
    <style>
      .cls-1 {
        fill: #fff;
      }
    </style>
  </defs>
  <g id="_ëîé_1" data-name="‘ëîé_1">
    <path class="cls-1" d="m282.23,0H15.71C2.38,0-4.87,15.58,3.71,25.78l99.89,118.76c2.53,3.01,3.92,6.83,3.92,10.76v102.19c0,3.17,1.26,6.22,3.51,8.47l57.92,57.92c2.56,2.56,5.71,3.71,8.8,3.71,6.46,0,12.67-5.02,12.67-12.6v-159.69c0-3.94,1.39-7.75,3.92-10.76l99.89-118.76c8.58-10.2,1.33-25.78-12-25.78Zm-102.62,132.14c-5.45,6.47-8.44,14.7-8.44,23.16v143.56l-44.38-44.38v-99.18c0-8.46-3-16.68-8.44-23.16L23.39,19.26h251.17l-94.95,112.88Z"/>
  </g>
</svg>